<svg width="9" height="11" viewBox="0 0 9 11" fill="none" xmlns="http://www.w3.org/2000/svg">
<path d="M7.01971 10.0988C6.47534 10.6265 5.88097 10.5432 5.30882 10.2932C4.70334 10.0377 4.14785 10.0266 3.50904 10.2932C2.70915 10.6376 2.28698 10.5376 1.80926 10.0988C-0.901509 7.3047 -0.50156 3.04968 2.57583 2.89414C3.32573 2.93303 3.84789 3.3052 4.28672 3.33853C4.9422 3.20521 5.5699 2.82193 6.26981 2.87192C7.10859 2.93858 7.74184 3.27187 8.15846 3.8718C6.42534 4.91055 6.8364 7.1936 8.42509 7.83241C8.10846 8.66564 7.69741 9.49331 7.01416 10.1043L7.01971 10.0988ZM4.23118 2.86081C4.14785 1.62208 5.15328 0.599987 6.30869 0.5C6.46978 1.93315 5.00886 2.99968 4.23118 2.86081Z" fill="#0D4929"/>
</svg>
