<svg width="11" height="11" viewBox="0 0 11 11" fill="none" xmlns="http://www.w3.org/2000/svg">
<path d="M5.25612 4C4.85829 4 4.47676 4.15804 4.19546 4.43934C3.91415 4.72064 3.75612 5.10218 3.75612 5.5C3.75612 5.89782 3.91415 6.27936 4.19546 6.56066C4.47676 6.84196 4.85829 7 5.25612 7C5.65394 7 6.03547 6.84196 6.31678 6.56066C6.59808 6.27936 6.75612 5.89782 6.75612 5.5C6.75612 5.10218 6.59808 4.72064 6.31678 4.43934C6.03547 4.15804 5.65394 4 5.25612 4ZM5.25612 3C5.91916 3 6.55504 3.26339 7.02388 3.73223C7.49272 4.20107 7.75611 4.83696 7.75611 5.5C7.75611 6.16304 7.49272 6.79893 7.02388 7.26777C6.55504 7.73661 5.91916 8 5.25612 8C4.59307 8 3.95719 7.73661 3.48835 7.26777C3.01951 6.79893 2.75612 6.16304 2.75612 5.5C2.75612 4.83696 3.01951 4.20107 3.48835 3.73223C3.95719 3.26339 4.59307 3 5.25612 3ZM8.50611 2.875C8.50611 3.04076 8.44027 3.19973 8.32306 3.31694C8.20585 3.43415 8.04688 3.5 7.88111 3.5C7.71535 3.5 7.55638 3.43415 7.43917 3.31694C7.32196 3.19973 7.25611 3.04076 7.25611 2.875C7.25611 2.70924 7.32196 2.55027 7.43917 2.43306C7.55638 2.31585 7.71535 2.25 7.88111 2.25C8.04688 2.25 8.20585 2.31585 8.32306 2.43306C8.44027 2.55027 8.50611 2.70924 8.50611 2.875ZM5.25612 1.5C4.01912 1.5 3.81712 1.5035 3.24162 1.529C2.84962 1.5475 2.58662 1.6 2.34262 1.695C2.13853 1.77019 1.95398 1.89032 1.80262 2.0465C1.64625 2.19781 1.52595 2.38237 1.45062 2.5865C1.35562 2.8315 1.30312 3.094 1.28512 3.4855C1.25912 4.0375 1.25562 4.2305 1.25562 5.5C1.25562 6.7375 1.25912 6.939 1.28462 7.5145C1.30312 7.906 1.35562 8.1695 1.45012 8.413C1.53512 8.6305 1.63512 8.787 1.80112 8.953C1.96962 9.121 2.12612 9.2215 2.34112 9.3045C2.58812 9.4 2.85112 9.453 3.24112 9.471C3.79312 9.497 3.98612 9.5 5.25562 9.5C6.49312 9.5 6.69461 9.4965 7.27011 9.471C7.66111 9.4525 7.92412 9.4 8.16862 9.3055C8.3727 9.23032 8.55725 9.11018 8.70862 8.954C8.87712 8.786 8.97762 8.6295 9.06062 8.414C9.15562 8.168 9.20862 7.905 9.22661 7.514C9.25261 6.9625 9.25562 6.769 9.25562 5.5C9.25562 4.263 9.25212 4.061 9.22661 3.4855C9.20811 3.0945 9.15512 2.8305 9.06062 2.5865C8.98543 2.38242 8.8653 2.19786 8.70912 2.0465C8.55781 1.89014 8.37325 1.76983 8.16912 1.6945C7.92412 1.5995 7.66111 1.547 7.27011 1.529C6.71862 1.503 6.52562 1.5 5.25562 1.5M5.25562 0.5C6.61412 0.5 6.78361 0.505 7.31711 0.53C7.84911 0.555 8.21211 0.6385 8.53061 0.7625C8.86061 0.8895 9.13862 1.0615 9.41662 1.339C9.67096 1.58887 9.86771 1.89124 9.99312 2.225C10.1166 2.5435 10.2006 2.9065 10.2256 3.439C10.2491 3.972 10.2556 4.1415 10.2556 5.5C10.2556 6.8585 10.2506 7.028 10.2256 7.561C10.2006 8.094 10.1166 8.456 9.99312 8.775C9.86771 9.10876 9.67096 9.41113 9.41662 9.661C9.16675 9.91535 8.86438 10.1121 8.53061 10.2375C8.21211 10.361 7.84911 10.445 7.31711 10.47C6.78361 10.4935 6.61412 10.5 5.25562 10.5C3.89712 10.5 3.72762 10.495 3.19412 10.47C2.66212 10.445 2.29962 10.361 1.98062 10.2375C1.64685 10.1121 1.34448 9.91535 1.09462 9.661C0.840268 9.41113 0.643523 9.10876 0.518115 8.775C0.394115 8.4565 0.310615 8.0935 0.285615 7.561C0.261615 7.028 0.255615 6.8585 0.255615 5.5C0.255615 4.1415 0.260615 3.972 0.285615 3.439C0.310615 2.906 0.394115 2.544 0.518115 2.225C0.643523 1.89124 0.840268 1.58887 1.09462 1.339C1.34448 1.08465 1.64685 0.887908 1.98062 0.7625C2.29912 0.6385 2.66162 0.555 3.19412 0.53C3.72812 0.5065 3.89762 0.5 5.25612 0.5" fill="#0D4929"/>
</svg>
