<svg width="10" height="11" viewBox="0 0 10 11" fill="none" xmlns="http://www.w3.org/2000/svg">
<path d="M9.08918 6.04083L7.45624 6.96501L5.99163 5.50957L7.46791 4.04247L9.08918 4.95998C9.18487 5.01409 9.26447 5.09263 9.31986 5.18758C9.37525 5.28253 9.40444 5.39048 9.40444 5.50041C9.40444 5.61033 9.37525 5.71828 9.31986 5.81323C9.26447 5.90818 9.18487 5.98673 9.08918 6.04083ZM0.47196 0.884913C0.441184 0.960024 0.425333 1.04041 0.425293 1.12158V9.87881C0.425293 9.96923 0.444043 10.0534 0.47696 10.1288L5.12495 5.50916L0.47196 0.884913ZM5.55829 5.07873L6.91582 3.72954L1.35239 0.581158C1.2331 0.512754 1.09426 0.486482 0.958218 0.506573L5.55829 5.07873ZM5.55829 5.94L0.974885 10.4955C1.09905 10.5105 1.22989 10.4888 1.35239 10.4192L6.90415 7.27752L5.55829 5.94Z" fill="#0D4929"/>
</svg>
