<svg width="11" height="11" viewBox="0 0 11 11" fill="none" xmlns="http://www.w3.org/2000/svg">
<path d="M8.80564 1.95502C8.34718 1.49208 7.80116 1.12501 7.1994 0.875207C6.59765 0.625406 5.95219 0.497868 5.30065 0.500027C2.57066 0.500027 0.345664 2.72502 0.345664 5.45501C0.345664 6.33001 0.575663 7.18001 1.00566 7.93001L0.305664 10.5L2.93066 9.81C3.65566 10.205 4.47065 10.415 5.30065 10.415C8.03064 10.415 10.2556 8.19001 10.2556 5.46001C10.2556 4.13502 9.74064 2.89002 8.80564 1.95502ZM5.30065 9.575C4.56065 9.575 3.83565 9.375 3.20066 9L3.05066 8.91L1.49066 9.32L1.90566 7.80001L1.80566 7.64501C1.39444 6.98854 1.17612 6.22965 1.17566 5.45501C1.17566 3.18502 3.02566 1.33502 5.29565 1.33502C6.39565 1.33502 7.43064 1.76502 8.20564 2.54502C8.58945 2.92695 8.8936 3.38129 9.10045 3.88168C9.3073 4.38207 9.41274 4.91856 9.41064 5.46001C9.42064 7.73001 7.57064 9.575 5.30065 9.575ZM7.56064 6.49501C7.43564 6.43501 6.82565 6.13501 6.71565 6.09001C6.60065 6.05001 6.52065 6.03001 6.43565 6.15001C6.35065 6.27501 6.11565 6.55501 6.04565 6.63501C5.97565 6.72001 5.90065 6.73001 5.77565 6.66501C5.65065 6.60501 5.25065 6.47001 4.78065 6.05001C4.41065 5.72001 4.16565 5.31501 4.09065 5.19001C4.02065 5.06501 4.08065 5.00002 4.14565 4.93502C4.20065 4.88002 4.27065 4.79002 4.33065 4.72002C4.39065 4.65002 4.41565 4.59502 4.45565 4.51502C4.49565 4.43002 4.47565 4.36002 4.44565 4.30002C4.41565 4.24002 4.16565 3.63002 4.06565 3.38002C3.96565 3.14002 3.86065 3.17002 3.78565 3.16502H3.54566C3.46066 3.16502 3.33066 3.19502 3.21566 3.32002C3.10566 3.44502 2.78566 3.74502 2.78566 4.35502C2.78566 4.96501 3.23066 5.55501 3.29066 5.63501C3.35066 5.72001 4.16565 6.97001 5.40565 7.50501C5.70065 7.63501 5.93065 7.71001 6.11065 7.76501C6.40565 7.86001 6.67565 7.84501 6.89065 7.81501C7.13065 7.78001 7.62564 7.51501 7.72564 7.22501C7.83064 6.93501 7.83064 6.69001 7.79564 6.63501C7.76064 6.58001 7.68564 6.55501 7.56064 6.49501Z" fill="#0D4929"/>
</svg>
